<?xml version="1.0" encoding="UTF-8" standalone="no"?>
<!DOCTYPE svg PUBLIC "-//W3C//DTD SVG 1.1//EN"
 "http://www.w3.org/Graphics/SVG/1.1/DTD/svg11.dtd">
<!-- Generated by graphviz version 2.43.0 (0)
 -->
<!-- Title: %3 Pages: 1 -->
<svg width="1679pt" height="614pt"
 viewBox="0.00 0.00 1679.29 613.80" xmlns="http://www.w3.org/2000/svg" xmlns:xlink="http://www.w3.org/1999/xlink">
<g id="graph0" class="graph" transform="scale(1 1) rotate(0) translate(4 609.8)">
<title>%3</title>
<polygon fill="white" stroke="transparent" points="-4,4 -4,-609.8 1675.29,-609.8 1675.29,4 -4,4"/>
<!-- &#45;1 -->
<g id="node1" class="node">
<title>&#45;1</title>
<polygon fill="lightgray" stroke="black" points="247.05,-419.7 221.05,-419.7 221.05,-401.7 247.05,-401.7 247.05,-419.7"/>
<text text-anchor="middle" x="234.05" y="-408.5" font-family="Times,serif" font-size="9.00">&#45;1</text>
</g>
<!-- A [Right Punch] -->
<g id="node8" class="node">
<title>A [Right Punch]</title>
<ellipse fill="lightblue" stroke="black" cx="65.05" cy="-197.22" rx="65.11" ry="65.11"/>
<text text-anchor="middle" x="65.05" y="-195.02" font-family="Times,serif" font-size="9.00">A [Right Punch]</text>
</g>
<!-- &#45;1&#45;&gt;A [Right Punch] -->
<g id="edge12" class="edge">
<title>&#45;1&#45;&gt;A [Right Punch]</title>
<path fill="none" stroke="red" stroke-width="0.39" stroke-dasharray="1,5" d="M227.34,-401.45C211.77,-382.28 171.98,-333.23 139.05,-291.97 130.02,-280.65 120.4,-268.52 111.19,-256.87"/>
<polygon fill="red" stroke="red" stroke-width="0.39" points="113.84,-254.58 104.9,-248.9 108.35,-258.92 113.84,-254.58"/>
</g>
<!-- Left Uppercut [UP + B] -->
<g id="node17" class="node">
<title>Left Uppercut [UP + B]</title>
<ellipse fill="lightblue" stroke="black" cx="445.05" cy="-197.22" rx="89.19" ry="89.19"/>
<text text-anchor="middle" x="445.05" y="-195.02" font-family="Times,serif" font-size="9.00">Left Uppercut [UP + B]</text>
</g>
<!-- &#45;1&#45;&gt;Left Uppercut [UP + B] -->
<g id="edge8" class="edge">
<title>&#45;1&#45;&gt;Left Uppercut [UP + B]</title>
<path fill="none" stroke="red" stroke-width="0.23" stroke-dasharray="1,5" d="M242.07,-401.67C263.81,-379.88 325.6,-317.94 375.35,-268.08"/>
<polygon fill="red" stroke="red" stroke-width="0.23" points="378.01,-270.37 382.6,-260.82 373.06,-265.43 378.01,-270.37"/>
</g>
<!-- DUCK [Down + Down] -->
<g id="node18" class="node">
<title>DUCK [Down + Down]</title>
<ellipse fill="lightblue" stroke="black" cx="234.05" cy="-197.22" rx="86.03" ry="86.03"/>
<text text-anchor="middle" x="234.05" y="-195.02" font-family="Times,serif" font-size="9.00">DUCK [Down + Down]</text>
</g>
<!-- &#45;1&#45;&gt;DUCK [Down + Down] -->
<g id="edge19" class="edge">
<title>&#45;1&#45;&gt;DUCK [Down + Down]</title>
<path fill="none" stroke="green" stroke-width="1.1" d="M234.05,-401.67C234.05,-383.51 234.05,-337.44 234.05,-293.73"/>
<polygon fill="green" stroke="green" stroke-width="1.1" points="237.55,-293.57 234.05,-283.57 230.55,-293.57 237.55,-293.57"/>
</g>
<!-- &#45;2 -->
<g id="node2" class="node">
<title>&#45;2</title>
<polygon fill="lightgray" stroke="black" points="458.05,-419.7 432.05,-419.7 432.05,-401.7 458.05,-401.7 458.05,-419.7"/>
<text text-anchor="middle" x="445.05" y="-408.5" font-family="Times,serif" font-size="9.00">&#45;2</text>
</g>
<!-- Right Uppercut [UP + A] -->
<g id="node16" class="node">
<title>Right Uppercut [UP + A]</title>
<ellipse fill="lightblue" stroke="black" cx="647.05" cy="-197.22" rx="94.51" ry="94.51"/>
<text text-anchor="middle" x="647.05" y="-195.02" font-family="Times,serif" font-size="9.00">Right Uppercut [UP + A]</text>
</g>
<!-- &#45;2&#45;&gt;Right Uppercut [UP + A] -->
<g id="edge30" class="edge">
<title>&#45;2&#45;&gt;Right Uppercut [UP + A]</title>
<path fill="none" stroke="green" stroke-width="0.29" d="M452.73,-401.67C472.74,-380.72 528.23,-322.63 574.81,-273.86"/>
<polygon fill="green" stroke="green" stroke-width="0.29" points="577.53,-276.08 581.91,-266.43 572.47,-271.24 577.53,-276.08"/>
</g>
<!-- &#45;2&#45;&gt;Left Uppercut [UP + B] -->
<g id="edge14" class="edge">
<title>&#45;2&#45;&gt;Left Uppercut [UP + B]</title>
<path fill="none" stroke="red" stroke-width="0.48" d="M445.05,-401.67C445.05,-383.93 445.05,-339.57 445.05,-296.78"/>
<polygon fill="red" stroke="red" stroke-width="0.48" points="448.55,-296.54 445.05,-286.54 441.55,-296.54 448.55,-296.54"/>
</g>
<!-- &#45;2&#45;&gt;DUCK [Down + Down] -->
<g id="edge26" class="edge">
<title>&#45;2&#45;&gt;DUCK [Down + Down]</title>
<path fill="none" stroke="green" stroke-width="0.26" d="M437.04,-401.67C415.01,-379.59 351.86,-316.3 301.79,-266.11"/>
<polygon fill="green" stroke="green" stroke-width="0.26" points="304.05,-263.42 294.5,-258.81 299.09,-268.36 304.05,-263.42"/>
</g>
<!-- &#45;3 -->
<g id="node3" class="node">
<title>&#45;3</title>
<polygon fill="lightgray" stroke="black" points="1475.05,-576.62 1449.05,-576.62 1449.05,-558.62 1475.05,-558.62 1475.05,-576.62"/>
<text text-anchor="middle" x="1462.05" y="-565.42" font-family="Times,serif" font-size="9.00">&#45;3</text>
</g>
<!-- Select [SELECT] -->
<g id="node15" class="node">
<title>Select [SELECT]</title>
<ellipse fill="lightblue" stroke="black" cx="1382.05" cy="-410.7" rx="66.44" ry="66.44"/>
<text text-anchor="middle" x="1382.05" y="-408.5" font-family="Times,serif" font-size="9.00">Select [SELECT]</text>
</g>
<!-- &#45;3&#45;&gt;Select [SELECT] -->
<g id="edge2" class="edge">
<title>&#45;3&#45;&gt;Select [SELECT]</title>
<path fill="none" stroke="red" stroke-width="0.73" stroke-dasharray="1,5" d="M1457.75,-558.29C1449.98,-543.25 1432.93,-510.23 1416.98,-479.33"/>
<polygon fill="red" stroke="red" stroke-width="0.73" points="1419.99,-477.54 1412.29,-470.26 1413.77,-480.76 1419.99,-477.54"/>
</g>
<!-- 19806 -->
<g id="node25" class="node">
<title>19806</title>
<ellipse fill="white" stroke="black" cx="1543.05" cy="-410.7" rx="33.47" ry="33.47"/>
<text text-anchor="middle" x="1543.05" y="-408.5" font-family="Times,serif" font-size="9.00">19806</text>
</g>
<!-- &#45;3&#45;&gt;19806 -->
<g id="edge28" class="edge">
<title>&#45;3&#45;&gt;19806</title>
<path fill="none" stroke="red" stroke-width="0.25" d="M1466.42,-558.52C1473.68,-545.04 1488.64,-517.16 1501.05,-493.44 1508.45,-479.31 1516.47,-463.76 1523.5,-450.04"/>
<polygon fill="red" stroke="red" stroke-width="0.25" points="1526.75,-451.38 1528.19,-440.89 1520.52,-448.19 1526.75,-451.38"/>
</g>
<!-- &#45;4 -->
<g id="node4" class="node">
<title>&#45;4</title>
<polygon fill="lightgray" stroke="black" points="1492.05,-419.7 1466.05,-419.7 1466.05,-401.7 1492.05,-401.7 1492.05,-419.7"/>
<text text-anchor="middle" x="1479.05" y="-408.5" font-family="Times,serif" font-size="9.00">&#45;4</text>
</g>
<!-- DOWN [Block] -->
<g id="node11" class="node">
<title>DOWN [Block]</title>
<ellipse fill="lightblue" stroke="black" cx="1479.05" cy="-197.22" rx="60.21" ry="60.21"/>
<text text-anchor="middle" x="1479.05" y="-195.02" font-family="Times,serif" font-size="9.00">DOWN [Block]</text>
</g>
<!-- &#45;4&#45;&gt;DOWN [Block] -->
<g id="edge3" class="edge">
<title>&#45;4&#45;&gt;DOWN [Block]</title>
<path fill="none" stroke="green" stroke-width="0.22" d="M1479.05,-401.67C1479.05,-379.86 1479.05,-317.82 1479.05,-267.93"/>
<polygon fill="green" stroke="green" stroke-width="0.22" points="1482.55,-267.81 1479.05,-257.81 1475.55,-267.81 1482.55,-267.81"/>
</g>
<!-- &#45;5 -->
<g id="node5" class="node">
<title>&#45;5</title>
<polygon fill="lightgray" stroke="black" points="1113.05,-576.62 1087.05,-576.62 1087.05,-558.62 1113.05,-558.62 1113.05,-576.62"/>
<text text-anchor="middle" x="1100.05" y="-565.42" font-family="Times,serif" font-size="9.00">&#45;5</text>
</g>
<!-- B [Left Punch] -->
<g id="node9" class="node">
<title>B [Left Punch]</title>
<ellipse fill="lightblue" stroke="black" cx="983.05" cy="-197.22" rx="59.29" ry="59.29"/>
<text text-anchor="middle" x="983.05" y="-195.02" font-family="Times,serif" font-size="9.00">B [Left Punch]</text>
</g>
<!-- &#45;5&#45;&gt;B [Left Punch] -->
<g id="edge31" class="edge">
<title>&#45;5&#45;&gt;B [Left Punch]</title>
<path fill="none" stroke="green" stroke-width="0.6" stroke-dasharray="1,5" d="M1091.26,-558.56C1078.13,-545.99 1053.6,-520.36 1041.05,-493.44 1031.56,-473.06 1008.61,-346.61 994.59,-265.95"/>
<polygon fill="green" stroke="green" stroke-width="0.6" points="998,-265.12 992.84,-255.86 991.1,-266.31 998,-265.12"/>
</g>
<!-- RIGHT [Dodge Right] -->
<g id="node13" class="node">
<title>RIGHT [Dodge Right]</title>
<ellipse fill="lightblue" stroke="black" cx="1177.05" cy="-410.7" rx="82.96" ry="82.96"/>
<text text-anchor="middle" x="1177.05" y="-408.5" font-family="Times,serif" font-size="9.00">RIGHT [Dodge Right]</text>
</g>
<!-- &#45;5&#45;&gt;RIGHT [Dodge Right] -->
<g id="edge13" class="edge">
<title>&#45;5&#45;&gt;RIGHT [Dodge Right]</title>
<path fill="none" stroke="green" stroke-width="0.56" stroke-dasharray="1,5" d="M1104.19,-558.29C1110.45,-545.7 1122.97,-520.51 1135.89,-494.51"/>
<polygon fill="green" stroke="green" stroke-width="0.56" points="1139.15,-495.82 1140.47,-485.31 1132.89,-492.7 1139.15,-495.82"/>
</g>
<!-- START [Start] -->
<g id="node14" class="node">
<title>START [Start]</title>
<ellipse fill="lightblue" stroke="black" cx="1212.05" cy="-197.22" rx="57.05" ry="57.05"/>
<text text-anchor="middle" x="1212.05" y="-195.02" font-family="Times,serif" font-size="9.00">START [Start]</text>
</g>
<!-- &#45;5&#45;&gt;START [Start] -->
<g id="edge4" class="edge">
<title>&#45;5&#45;&gt;START [Start]</title>
<path fill="none" stroke="green" stroke-width="0.42" d="M1113.22,-565.59C1146.35,-562.19 1233.08,-548.22 1269.05,-493.44 1316.5,-421.18 1278.71,-318.87 1246.1,-255.62"/>
<polygon fill="green" stroke="green" stroke-width="0.42" points="1249.1,-253.8 1241.34,-246.58 1242.91,-257.06 1249.1,-253.8"/>
</g>
<!-- &#45;5&#45;&gt;Select [SELECT] -->
<g id="edge1" class="edge">
<title>&#45;5&#45;&gt;Select [SELECT]</title>
<path fill="none" stroke="green" stroke-width="0.11" d="M1113.25,-563.99C1146.9,-556.85 1237.75,-534.82 1302.05,-493.44 1312.59,-486.65 1322.8,-478.25 1332.2,-469.43"/>
<polygon fill="green" stroke="green" stroke-width="0.11" points="1334.81,-471.77 1339.55,-462.29 1329.94,-466.74 1334.81,-471.77"/>
</g>
<!-- 20581 -->
<g id="node21" class="node">
<title>20581</title>
<ellipse fill="white" stroke="black" cx="877.05" cy="-410.7" rx="33.47" ry="33.47"/>
<text text-anchor="middle" x="877.05" y="-408.5" font-family="Times,serif" font-size="9.00">20581</text>
</g>
<!-- &#45;5&#45;&gt;20581 -->
<g id="edge32" class="edge">
<title>&#45;5&#45;&gt;20581</title>
<path fill="none" stroke="green" stroke-width="0.33" d="M1087,-564.56C1054.73,-558.85 970.11,-540.07 919.05,-493.44 906.78,-482.23 897.54,-466.61 890.9,-452.02"/>
<polygon fill="green" stroke="green" stroke-width="0.33" points="894.04,-450.47 886.9,-442.64 887.6,-453.21 894.04,-450.47"/>
</g>
<!-- 18653 -->
<g id="node24" class="node">
<title>18653</title>
<ellipse fill="white" stroke="black" cx="961.05" cy="-410.7" rx="33.47" ry="33.47"/>
<text text-anchor="middle" x="961.05" y="-408.5" font-family="Times,serif" font-size="9.00">18653</text>
</g>
<!-- &#45;5&#45;&gt;18653 -->
<g id="edge22" class="edge">
<title>&#45;5&#45;&gt;18653</title>
<path fill="none" stroke="red" stroke-width="0.3" d="M1086.88,-558.46C1067.76,-546.15 1032.01,-521.29 1008.05,-493.44 997.02,-480.61 987.24,-464.82 979.49,-450.54"/>
<polygon fill="red" stroke="red" stroke-width="0.3" points="982.45,-448.66 974.7,-441.43 976.25,-451.91 982.45,-448.66"/>
</g>
<!-- &#45;6 -->
<g id="node6" class="node">
<title>&#45;6</title>
<polygon fill="lightgray" stroke="black" points="1076.05,-419.7 1050.05,-419.7 1050.05,-401.7 1076.05,-401.7 1076.05,-419.7"/>
<text text-anchor="middle" x="1063.05" y="-408.5" font-family="Times,serif" font-size="9.00">&#45;6</text>
</g>
<!-- &#45;6&#45;&gt;B [Left Punch] -->
<g id="edge15" class="edge">
<title>&#45;6&#45;&gt;B [Left Punch]</title>
<path fill="none" stroke="red" stroke-width="0.18" d="M1060.55,-401.52C1055.99,-386.73 1045.88,-354.61 1036.05,-327.97 1028.02,-306.2 1018.61,-282.63 1009.97,-261.64"/>
<polygon fill="red" stroke="red" stroke-width="0.18" points="1013.12,-260.09 1006.07,-252.19 1006.65,-262.77 1013.12,-260.09"/>
</g>
<!-- &#45;6&#45;&gt;DOWN [Block] -->
<g id="edge18" class="edge">
<title>&#45;6&#45;&gt;DOWN [Block]</title>
<path fill="none" stroke="green" stroke-width="0.38" d="M1062.63,-401.56C1062.24,-385.05 1063.9,-347.52 1085.05,-327.97 1149.13,-268.74 1194.97,-318.63 1278.05,-291.97 1326.59,-276.4 1378.68,-251.86 1417.67,-231.8"/>
<polygon fill="green" stroke="green" stroke-width="0.38" points="1419.52,-234.78 1426.79,-227.06 1416.3,-228.57 1419.52,-234.78"/>
</g>
<!-- &#45;6&#45;&gt;START [Start] -->
<g id="edge7" class="edge">
<title>&#45;6&#45;&gt;START [Start]</title>
<path fill="none" stroke="green" stroke-width="0.56" d="M1063.87,-401.53C1065.68,-386.2 1071.06,-352.47 1085.05,-327.97 1104.12,-294.59 1133.84,-263.56 1159.74,-240.23"/>
<polygon fill="green" stroke="green" stroke-width="0.56" points="1162.12,-242.8 1167.29,-233.55 1157.48,-237.56 1162.12,-242.8"/>
</g>
<!-- &#45;6&#45;&gt;Right Uppercut [UP + A] -->
<g id="edge6" class="edge">
<title>&#45;6&#45;&gt;Right Uppercut [UP + A]</title>
<path fill="none" stroke="red" stroke-width="0.36" d="M1059.7,-401.52C1052.3,-384.59 1032.8,-345.79 1003.05,-327.97 906,-269.83 853.52,-339.93 751.05,-291.97 740.22,-286.9 729.7,-280.31 719.79,-272.98"/>
<polygon fill="red" stroke="red" stroke-width="0.36" points="721.66,-270.01 711.61,-266.66 717.38,-275.55 721.66,-270.01"/>
</g>
<!-- &#45;7 -->
<g id="node7" class="node">
<title>&#45;7</title>
<polygon fill="lightgray" stroke="black" points="660.05,-419.7 634.05,-419.7 634.05,-401.7 660.05,-401.7 660.05,-419.7"/>
<text text-anchor="middle" x="647.05" y="-408.5" font-family="Times,serif" font-size="9.00">&#45;7</text>
</g>
<!-- &#45;7&#45;&gt;A [Right Punch] -->
<g id="edge27" class="edge">
<title>&#45;7&#45;&gt;A [Right Punch]</title>
<path fill="none" stroke="red" stroke-width="0.25" stroke-dasharray="1,5" d="M634.05,-402.04C605.15,-385.41 532.92,-346.04 467.05,-327.97 325.63,-289.17 267.33,-363.05 139.05,-291.97 125.66,-284.55 113.84,-273.62 103.8,-261.81"/>
<polygon fill="red" stroke="red" stroke-width="0.25" points="106.46,-259.53 97.46,-253.95 101.01,-263.93 106.46,-259.53"/>
</g>
<!-- &#45;7&#45;&gt;B [Left Punch] -->
<g id="edge5" class="edge">
<title>&#45;7&#45;&gt;B [Left Punch]</title>
<path fill="none" stroke="green" stroke-width="0.31" d="M654.81,-401.51C671.01,-384.89 710.35,-347.19 751.05,-327.97 818.54,-296.11 852.62,-332.85 915.05,-291.97 928.3,-283.3 939.83,-271.09 949.45,-258.34"/>
<polygon fill="green" stroke="green" stroke-width="0.31" points="952.51,-260.08 955.49,-249.92 946.82,-256 952.51,-260.08"/>
</g>
<!-- LEFT [Dodge Left] -->
<g id="node12" class="node">
<title>LEFT [Dodge Left]</title>
<ellipse fill="lightblue" stroke="black" cx="833.05" cy="-197.22" rx="72.66" ry="72.66"/>
<text text-anchor="middle" x="833.05" y="-195.02" font-family="Times,serif" font-size="9.00">LEFT [Dodge Left]</text>
</g>
<!-- &#45;7&#45;&gt;LEFT [Dodge Left] -->
<g id="edge34" class="edge">
<title>&#45;7&#45;&gt;LEFT [Dodge Left]</title>
<path fill="none" stroke="red" stroke-width="0.28" d="M654.38,-401.44C671.39,-382.24 714.86,-333.15 751.05,-291.97 760.01,-281.78 769.51,-270.95 778.74,-260.4"/>
<polygon fill="red" stroke="red" stroke-width="0.28" points="781.45,-262.62 785.4,-252.79 776.18,-258.01 781.45,-262.62"/>
</g>
<!-- &#45;7&#45;&gt;Right Uppercut [UP + A] -->
<g id="edge17" class="edge">
<title>&#45;7&#45;&gt;Right Uppercut [UP + A]</title>
<path fill="none" stroke="green" stroke-width="0.62" d="M647.05,-401.67C647.05,-384.7 647.05,-343.37 647.05,-302.36"/>
<polygon fill="green" stroke="green" stroke-width="0.62" points="650.55,-302.23 647.05,-292.23 643.55,-302.23 650.55,-302.23"/>
</g>
<!-- &#45;7&#45;&gt;Left Uppercut [UP + B] -->
<g id="edge16" class="edge">
<title>&#45;7&#45;&gt;Left Uppercut [UP + B]</title>
<path fill="none" stroke="red" stroke-width="0.32" stroke-dasharray="1,5" d="M639.38,-401.67C618.82,-380.14 560.81,-319.42 513.49,-269.87"/>
<polygon fill="red" stroke="red" stroke-width="0.32" points="515.73,-267.15 506.29,-262.34 510.67,-271.99 515.73,-267.15"/>
</g>
<!-- B [Left Punch]&#45;&gt;B [Left Punch] -->
<g id="edge10" class="edge">
<title>B [Left Punch]&#45;&gt;B [Left Punch]</title>
<path fill="none" stroke="red" stroke-width="0.24" d="M1034.41,-227.48C1049.11,-226.29 1060.45,-216.2 1060.45,-197.22 1060.45,-182.83 1053.94,-173.56 1044.39,-169.39"/>
<polygon fill="red" stroke="red" stroke-width="0.24" points="1044.95,-165.93 1034.41,-166.96 1043.3,-172.73 1044.95,-165.93"/>
</g>
<!-- 18710 -->
<g id="node23" class="node">
<title>18710</title>
<ellipse fill="white" stroke="black" cx="983.05" cy="-33.23" rx="33.47" ry="33.47"/>
<text text-anchor="middle" x="983.05" y="-31.03" font-family="Times,serif" font-size="9.00">18710</text>
</g>
<!-- B [Left Punch]&#45;&gt;18710 -->
<g id="edge23" class="edge">
<title>B [Left Punch]&#45;&gt;18710</title>
<path fill="none" stroke="green" stroke-width="0.25" d="M976.54,-137.74C976.1,-117.4 976.27,-95 977.05,-76.26"/>
<polygon fill="green" stroke="green" stroke-width="0.25" points="980.55,-76.42 977.55,-66.26 973.56,-76.08 980.55,-76.42"/>
</g>
<!-- UP [Up] -->
<g id="node10" class="node">
<title>UP [Up]</title>
<ellipse fill="lightblue" stroke="black" cx="1531.05" cy="-567.62" rx="38.37" ry="38.37"/>
<text text-anchor="middle" x="1531.05" y="-565.42" font-family="Times,serif" font-size="9.00">UP [Up]</text>
</g>
<!-- UP [Up]&#45;&gt;UP [Up] -->
<g id="edge11" class="edge">
<title>UP [Up]&#45;&gt;UP [Up]</title>
<path fill="none" stroke="green" stroke-width="0.16" stroke-dasharray="1,5" d="M1557.64,-595.26C1572.97,-600.9 1587.24,-591.69 1587.24,-567.62 1587.24,-549 1578.7,-539.27 1567.74,-538.43"/>
<polygon fill="green" stroke="green" stroke-width="0.16" points="1567,-535 1557.64,-539.98 1568.06,-541.92 1567,-535"/>
</g>
<!-- DUCK [Down + Down]&#45;&gt;DUCK [Down + Down] -->
<g id="edge9" class="edge">
<title>DUCK [Down + Down]&#45;&gt;DUCK [Down + Down]</title>
<path fill="none" stroke="green" stroke-width="0.18" stroke-dasharray="1,5" d="M315.8,-225.32C329.15,-221.3 338.32,-211.93 338.32,-197.22 338.32,-186.3 333.27,-178.33 325.2,-173.29"/>
<polygon fill="green" stroke="green" stroke-width="0.18" points="326.36,-169.98 315.8,-169.12 323.52,-176.37 326.36,-169.98"/>
</g>
<!-- 17123 -->
<g id="node19" class="node">
<title>17123</title>
<ellipse fill="white" stroke="black" cx="65.05" cy="-410.7" rx="33.47" ry="33.47"/>
<text text-anchor="middle" x="65.05" y="-408.5" font-family="Times,serif" font-size="9.00">17123</text>
</g>
<!-- 17123&#45;&gt;A [Right Punch] -->
<g id="edge20" class="edge">
<title>17123&#45;&gt;A [Right Punch]</title>
<path fill="none" stroke="red" stroke-width="0.39" stroke-dasharray="1,5" d="M65.05,-377.12C65.05,-349.39 65.05,-308.48 65.05,-272.78"/>
<polygon fill="red" stroke="red" stroke-width="0.39" points="68.55,-272.38 65.05,-262.38 61.55,-272.38 68.55,-272.38"/>
</g>
<!-- 19037 -->
<g id="node20" class="node">
<title>19037</title>
<ellipse fill="white" stroke="black" cx="1638.05" cy="-567.62" rx="33.47" ry="33.47"/>
<text text-anchor="middle" x="1638.05" y="-565.42" font-family="Times,serif" font-size="9.00">19037</text>
</g>
<!-- 20581&#45;&gt;B [Left Punch] -->
<g id="edge33" class="edge">
<title>20581&#45;&gt;B [Left Punch]</title>
<path fill="none" stroke="red" stroke-width="0.56" d="M891.57,-380.74C907.09,-349.78 932.16,-299.77 952.13,-259.92"/>
<polygon fill="red" stroke="red" stroke-width="0.56" points="955.35,-261.31 956.7,-250.8 949.09,-258.18 955.35,-261.31"/>
</g>
<!-- 18511 -->
<g id="node22" class="node">
<title>18511</title>
<ellipse fill="white" stroke="black" cx="793.05" cy="-410.7" rx="33.47" ry="33.47"/>
<text text-anchor="middle" x="793.05" y="-408.5" font-family="Times,serif" font-size="9.00">18511</text>
</g>
<!-- 18511&#45;&gt;B [Left Punch] -->
<g id="edge25" class="edge">
<title>18511&#45;&gt;B [Left Punch]</title>
<path fill="none" stroke="red" stroke-width="0.22" d="M803.11,-378.99C809.91,-362.15 820.36,-341.92 835.05,-327.97 863.33,-301.13 884.81,-316.58 915.05,-291.97 927.08,-282.19 938.03,-269.79 947.46,-257.24"/>
<polygon fill="red" stroke="red" stroke-width="0.22" points="950.4,-259.15 953.44,-249 944.73,-255.04 950.4,-259.15"/>
</g>
<!-- 18511&#45;&gt;LEFT [Dodge Left] -->
<g id="edge21" class="edge">
<title>18511&#45;&gt;LEFT [Dodge Left]</title>
<path fill="none" stroke="green" stroke-width="0.12" d="M799.13,-377.58C804.06,-351.5 811.24,-313.56 817.72,-279.28"/>
<polygon fill="green" stroke="green" stroke-width="0.12" points="821.2,-279.72 819.62,-269.25 814.32,-278.42 821.2,-279.72"/>
</g>
<!-- 18710&#45;&gt;B [Left Punch] -->
<g id="edge24" class="edge">
<title>18710&#45;&gt;B [Left Punch]</title>
<path fill="none" stroke="green" stroke-width="0.12" stroke-dasharray="1,5" d="M988.56,-66.26C989.59,-83.85 989.98,-106.38 989.73,-127.71"/>
<polygon fill="green" stroke="green" stroke-width="0.12" points="986.23,-127.68 989.57,-137.74 993.23,-127.8 986.23,-127.68"/>
</g>
<!-- 19806&#45;&gt;DOWN [Block] -->
<g id="edge29" class="edge">
<title>19806&#45;&gt;DOWN [Block]</title>
<path fill="none" stroke="green" stroke-width="0.23" stroke-dasharray="1,5" d="M1533.61,-378.5C1524.61,-348.76 1510.76,-303 1499.27,-265.03"/>
<polygon fill="green" stroke="green" stroke-width="0.23" points="1502.5,-263.62 1496.25,-255.06 1495.8,-265.64 1502.5,-263.62"/>
</g>
</g>
</svg>
